# xmcd CD database file
#
# Track frame offsets:
#	150
#	19534
#	38312
#	56943
#	78840
#	95356
#	112112
#	134883
#	154682
#	175206
#	197751
#	218990
#
# Disc length: 3156 seconds
#
# Revision: 1
# Processed by: cddbd v1.5.1PL0 Copyright (c) Steve Scherf et al.
# Submitted via: CDex 1.51
#
DISCID=a00c520c
DTITLE=Various Artist - Baladas en Salsa
DYEAR=2004
DGENRE=Salsa
TTITLE0=Mientes Tan Bien/Sin Bandera
TTITLE1=Cuidarte El Alma/Chayanne
TTITLE2=Tal Vez/Ricky Martin
TTITLE3=Que Alguien Me Diga/Gilberto Santa Rosa
TTITLE4=Ya No Es Igual/Frankie J
TTITLE5=Dime/Ednita Nazario
TTITLE6=La Quiero A Morir/D.L.G.
TTITLE7=A Puro Dolor/Son By 4
TTITLE8=Quuitemonos La Ropa/Ng2
TTITLE9=Por Ese Hombre/Brenda K. Starr
TTITLE10=Entre El Amor Y El Odio/Angel Lopez
TTITLE11=Se Me Acabo El Amor/ Maia
EXTD=YEAR: 2004
EXTT0=
EXTT1=
EXTT2=
EXTT3=
EXTT4=
EXTT5=
EXTT6=
EXTT7=
EXTT8=
EXTT9=
EXTT10=
EXTT11=
PLAYORDER=
